<svg viewBox="0 0 24 24" shape-rendering="crispEdges" xmlns="http://www.w3.org/2000/svg">
<rect x="14" y="-1" width="5" height="1" fill="#FFF8D0"/>
<rect x="14" y="0" width="1" height="1" fill="#FFF8D0"/>
<rect x="15" y="0" width="3" height="1" fill="#FFFFFF"/>
<rect x="18" y="0" width="4" height="1" fill="#FFF8D0"/>
<rect x="15" y="1" width="1" height="1" fill="#FFF8D0"/>
<rect x="16" y="1" width="2" height="1" fill="#FFFFFF"/>
<rect x="18" y="1" width="2" height="1" fill="#FFF8D0"/>
<rect x="20" y="1" width="1" height="1" fill="#FFFFFF"/>
<rect x="21" y="1" width="2" height="1" fill="#FFF8D0"/>
<rect x="8" y="2" width="8" height="1" fill="#4A2C05"/>
<rect x="16" y="2" width="3" height="1" fill="#FFF8D0"/>
<rect x="19" y="2" width="3" height="1" fill="#FFFFFF"/>
<rect x="22" y="2" width="2" height="1" fill="#FFF8D0"/>
<rect x="6" y="3" width="2" height="1" fill="#4A2C05"/>
<rect x="8" y="3" width="1" height="1" fill="#7A4E0E"/>
<rect x="9" y="3" width="6" height="1" fill="#A87010"/>
<rect x="15" y="3" width="1" height="1" fill="#7A4E0E"/>
<rect x="16" y="3" width="2" height="1" fill="#4A2C05"/>
<rect x="18" y="3" width="5" height="1" fill="#FFFFFF"/>
<rect x="23" y="3" width="1" height="1" fill="#FFF8D0"/>
<rect x="5" y="4" width="1" height="1" fill="#F5D040"/>
<rect x="6" y="4" width="1" height="1" fill="#7A4E0E"/>
<rect x="7" y="4" width="10" height="1" fill="#A87010"/>
<rect x="17" y="4" width="1" height="1" fill="#7A4E0E"/>
<rect x="18" y="4" width="1" height="1" fill="#4A2C05"/>
<rect x="19" y="4" width="3" height="1" fill="#FFFFFF"/>
<rect x="22" y="4" width="1" height="1" fill="#FFF8D0"/>
<rect x="4" y="5" width="2" height="1" fill="#FFF0A8"/>
<rect x="6" y="5" width="1" height="1" fill="#F5D040"/>
<rect x="7" y="5" width="1" height="1" fill="#A87010"/>
<rect x="8" y="5" width="8" height="1" fill="#FFFFF0"/>
<rect x="16" y="5" width="2" height="1" fill="#A87010"/>
<rect x="18" y="5" width="1" height="1" fill="#7A4E0E"/>
<rect x="19" y="5" width="1" height="1" fill="#4A2C05"/>
<rect x="20" y="5" width="1" height="1" fill="#FFFFFF"/>
<rect x="21" y="5" width="4" height="1" fill="#FFF8D0"/>
<rect x="3" y="6" width="1" height="1" fill="#F5D040"/>
<rect x="4" y="6" width="2" height="1" fill="#FFF0A8"/>
<rect x="6" y="6" width="1" height="1" fill="#F5D040"/>
<rect x="7" y="6" width="1" height="1" fill="#A87010"/>
<rect x="8" y="6" width="8" height="1" fill="#F0D860"/>
<rect x="16" y="6" width="1" height="1" fill="#3A1A05"/>
<rect x="17" y="6" width="2" height="1" fill="#A87010"/>
<rect x="19" y="6" width="1" height="1" fill="#7A4E0E"/>
<rect x="20" y="6" width="1" height="1" fill="#4A2C05"/>
<rect x="21" y="6" width="1" height="1" fill="#FFF8D0"/>
<rect x="22" y="6" width="2" height="1" fill="#FFFFFF"/>
<rect x="24" y="6" width="1" height="1" fill="#FFF8D0"/>
<rect x="3" y="7" width="4" height="1" fill="#F5D040"/>
<rect x="7" y="7" width="1" height="1" fill="#C89820"/>
<rect x="8" y="7" width="3" height="1" fill="#F0D860"/>
<rect x="11" y="7" width="6" height="1" fill="#3A1A05"/>
<rect x="17" y="7" width="3" height="1" fill="#A87010"/>
<rect x="20" y="7" width="1" height="1" fill="#4A2C05"/>
<rect x="21" y="7" width="1" height="1" fill="#FFF8D0"/>
<rect x="22" y="7" width="1" height="1" fill="#FFFFFF"/>
<rect x="23" y="7" width="1" height="1" fill="#FFF8D0"/>
<rect x="2" y="8" width="1" height="1" fill="#4A2C05"/>
<rect x="3" y="8" width="1" height="1" fill="#7A4E0E"/>
<rect x="4" y="8" width="3" height="1" fill="#F5D040"/>
<rect x="7" y="8" width="1" height="1" fill="#C89820"/>
<rect x="8" y="8" width="3" height="1" fill="#F0D860"/>
<rect x="11" y="8" width="1" height="1" fill="#3A1A05"/>
<rect x="12" y="8" width="2" height="1" fill="#E0B028"/>
<rect x="14" y="8" width="4" height="1" fill="#C89820"/>
<rect x="18" y="8" width="2" height="1" fill="#A87010"/>
<rect x="20" y="8" width="1" height="1" fill="#7A4E0E"/>
<rect x="21" y="8" width="1" height="1" fill="#4A2C05"/>
<rect x="22" y="8" width="1" height="1" fill="#FFF8D0"/>
<rect x="2" y="9" width="1" height="1" fill="#4A2C05"/>
<rect x="3" y="9" width="2" height="1" fill="#A87010"/>
<rect x="5" y="9" width="3" height="1" fill="#C89820"/>
<rect x="8" y="9" width="3" height="1" fill="#F0D860"/>
<rect x="11" y="9" width="1" height="1" fill="#3A1A05"/>
<rect x="12" y="9" width="3" height="1" fill="#E0B028"/>
<rect x="15" y="9" width="4" height="1" fill="#C89820"/>
<rect x="19" y="9" width="2" height="1" fill="#A87010"/>
<rect x="21" y="9" width="1" height="1" fill="#4A2C05"/>
<rect x="2" y="10" width="1" height="1" fill="#4A2C05"/>
<rect x="3" y="10" width="2" height="1" fill="#A87010"/>
<rect x="5" y="10" width="3" height="1" fill="#C89820"/>
<rect x="8" y="10" width="3" height="1" fill="#F0D860"/>
<rect x="11" y="10" width="1" height="1" fill="#3A1A05"/>
<rect x="12" y="10" width="4" height="1" fill="#E0B028"/>
<rect x="16" y="10" width="3" height="1" fill="#C89820"/>
<rect x="19" y="10" width="2" height="1" fill="#A87010"/>
<rect x="21" y="10" width="1" height="1" fill="#4A2C05"/>
<rect x="2" y="11" width="1" height="1" fill="#4A2C05"/>
<rect x="3" y="11" width="2" height="1" fill="#A87010"/>
<rect x="5" y="11" width="3" height="1" fill="#C89820"/>
<rect x="8" y="11" width="3" height="1" fill="#F0D860"/>
<rect x="11" y="11" width="4" height="1" fill="#FFFFF0"/>
<rect x="15" y="11" width="1" height="1" fill="#E0B028"/>
<rect x="16" y="11" width="3" height="1" fill="#C89820"/>
<rect x="19" y="11" width="2" height="1" fill="#A87010"/>
<rect x="21" y="11" width="1" height="1" fill="#4A2C05"/>
<rect x="2" y="12" width="1" height="1" fill="#4A2C05"/>
<rect x="3" y="12" width="2" height="1" fill="#A87010"/>
<rect x="5" y="12" width="3" height="1" fill="#C89820"/>
<rect x="8" y="12" width="7" height="1" fill="#F0D860"/>
<rect x="15" y="12" width="1" height="1" fill="#3A1A05"/>
<rect x="16" y="12" width="3" height="1" fill="#C89820"/>
<rect x="19" y="12" width="2" height="1" fill="#A87010"/>
<rect x="21" y="12" width="1" height="1" fill="#4A2C05"/>
<rect x="2" y="13" width="1" height="1" fill="#4A2C05"/>
<rect x="3" y="13" width="2" height="1" fill="#A87010"/>
<rect x="5" y="13" width="3" height="1" fill="#C89820"/>
<rect x="8" y="13" width="3" height="1" fill="#F0D860"/>
<rect x="11" y="13" width="5" height="1" fill="#3A1A05"/>
<rect x="16" y="13" width="3" height="1" fill="#C89820"/>
<rect x="19" y="13" width="2" height="1" fill="#A87010"/>
<rect x="21" y="13" width="1" height="1" fill="#4A2C05"/>
<rect x="2" y="14" width="1" height="1" fill="#4A2C05"/>
<rect x="3" y="14" width="2" height="1" fill="#A87010"/>
<rect x="5" y="14" width="3" height="1" fill="#C89820"/>
<rect x="8" y="14" width="3" height="1" fill="#F0D860"/>
<rect x="11" y="14" width="1" height="1" fill="#3A1A05"/>
<rect x="12" y="14" width="3" height="1" fill="#E0B028"/>
<rect x="15" y="14" width="4" height="1" fill="#C89820"/>
<rect x="19" y="14" width="2" height="1" fill="#A87010"/>
<rect x="21" y="14" width="1" height="1" fill="#4A2C05"/>
<rect x="2" y="15" width="1" height="1" fill="#4A2C05"/>
<rect x="3" y="15" width="1" height="1" fill="#7A4E0E"/>
<rect x="4" y="15" width="2" height="1" fill="#A87010"/>
<rect x="6" y="15" width="2" height="1" fill="#C89820"/>
<rect x="8" y="15" width="3" height="1" fill="#F0D860"/>
<rect x="11" y="15" width="1" height="1" fill="#3A1A05"/>
<rect x="12" y="15" width="2" height="1" fill="#E0B028"/>
<rect x="14" y="15" width="4" height="1" fill="#C89820"/>
<rect x="18" y="15" width="2" height="1" fill="#A87010"/>
<rect x="20" y="15" width="1" height="1" fill="#7A4E0E"/>
<rect x="21" y="15" width="1" height="1" fill="#4A2C05"/>
<rect x="3" y="16" width="1" height="1" fill="#4A2C05"/>
<rect x="4" y="16" width="3" height="1" fill="#A87010"/>
<rect x="7" y="16" width="1" height="1" fill="#C89820"/>
<rect x="8" y="16" width="3" height="1" fill="#F0D860"/>
<rect x="11" y="16" width="5" height="1" fill="#FFFFF0"/>
<rect x="16" y="16" width="1" height="1" fill="#C89820"/>
<rect x="17" y="16" width="3" height="1" fill="#A87010"/>
<rect x="20" y="16" width="1" height="1" fill="#4A2C05"/>
<rect x="3" y="17" width="1" height="1" fill="#4A2C05"/>
<rect x="4" y="17" width="1" height="1" fill="#7A4E0E"/>
<rect x="5" y="17" width="3" height="1" fill="#A87010"/>
<rect x="8" y="17" width="8" height="1" fill="#F0D860"/>
<rect x="16" y="17" width="1" height="1" fill="#3A1A05"/>
<rect x="17" y="17" width="2" height="1" fill="#A87010"/>
<rect x="19" y="17" width="1" height="1" fill="#7A4E0E"/>
<rect x="20" y="17" width="1" height="1" fill="#4A2C05"/>
<rect x="4" y="18" width="1" height="1" fill="#4A2C05"/>
<rect x="5" y="18" width="1" height="1" fill="#7A4E0E"/>
<rect x="6" y="18" width="3" height="1" fill="#A87010"/>
<rect x="9" y="18" width="8" height="1" fill="#3A1A05"/>
<rect x="17" y="18" width="1" height="1" fill="#A87010"/>
<rect x="18" y="18" width="1" height="1" fill="#7A4E0E"/>
<rect x="19" y="18" width="1" height="1" fill="#4A2C05"/>
<rect x="5" y="19" width="1" height="1" fill="#4A2C05"/>
<rect x="6" y="19" width="1" height="1" fill="#7A4E0E"/>
<rect x="7" y="19" width="10" height="1" fill="#A87010"/>
<rect x="17" y="19" width="1" height="1" fill="#7A4E0E"/>
<rect x="18" y="19" width="1" height="1" fill="#4A2C05"/>
<rect x="6" y="20" width="2" height="1" fill="#4A2C05"/>
<rect x="8" y="20" width="1" height="1" fill="#7A4E0E"/>
<rect x="9" y="20" width="6" height="1" fill="#A87010"/>
<rect x="15" y="20" width="1" height="1" fill="#7A4E0E"/>
<rect x="16" y="20" width="2" height="1" fill="#4A2C05"/>
<rect x="8" y="21" width="8" height="1" fill="#4A2C05"/>
</svg>